<svg xmlns="http://www.w3.org/2000/svg" viewBox="0 0 741.11308 150.27727"><defs><style>.cls-1{fill:#66145e;}</style></defs><g id="Calque_2" data-name="Calque 2"><g id="Calque_1-2" data-name="Calque 1"><path d="M283.5251,67.06093v42.70312H261.23457V73.44765c0-7.76417-4.25781-12.39747-11.14551-12.39747-7.88916.125-12.77343,6.38672-12.77343,15.27735v33.43652H215.0251V73.44765c0-7.76417-4.25781-12.39747-11.14551-12.39747-7.88916.125-12.89844,6.38672-12.89844,15.27735v33.43652H168.81563V42.015h22.16552V53.16054c4.6333-7.88916,12.27246-12.022,22.04-12.022,11.02051,0,19.16016,5.63526,22.54151,15.15284,4.38281-10.01856,12.64794-15.15284,23.668-15.15284C273.88252,41.13856,283.5251,51.15712,283.5251,67.06093Z"/><path d="M362.67012,81.83827H315.58418c2.12891,7.63867,7.76416,11.89648,15.40332,11.89648a22.45538,22.45538,0,0,0,15.90381-6.88769l11.64648,11.64648c-6.88769,7.76368-17.03125,12.02149-29.5542,12.02149-22.16552,0-35.81543-13.64942-35.81543-34.3125,0-21.03809,14.15088-34.93848,35.31446-34.93848C352.15107,41.26405,364.17305,57.16786,362.67012,81.83827Zm-21.53907-11.897c0-7.76416-5.00927-13.02393-12.52294-13.02393-7.26319,0-12.022,5.25977-13.52491,13.02393Zm-7.51367-35.18946H316.71113L330.111,13.33778l19.91113,7.0127Z"/><path d="M488.90254,67.06093v42.70312h-22.291V73.44765c0-7.76417-4.25781-12.39747-11.1455-12.39747-7.88965.125-12.77344,6.38672-12.77344,15.27735v33.43652h-22.291V73.44765c0-7.76417-4.25781-12.39747-11.14453-12.39747-7.88965.125-12.89941,6.38672-12.89941,15.27735v33.43652h-22.165V42.015h22.165V53.16054c4.63379-7.88916,12.27246-12.022,22.041-12.022,11.01953,0,19.16016,5.63526,22.541,15.15284,4.38281-10.01856,12.64844-15.15284,23.668-15.15284C479.26,41.13856,488.90254,51.15712,488.90254,67.06093Z"/><path d="M572.55586,75.827c0,20.91357-14.77734,34.688-37.06738,34.688-22.291,0-36.94239-13.77442-36.94239-34.688,0-20.78809,14.65137-34.563,36.94239-34.563C557.77852,41.26405,572.55586,55.039,572.55586,75.827Zm-51.59375.25049c0,10.14355,5.88574,16.90625,14.52637,16.90625,8.76562,0,14.65136-6.7627,14.65136-16.90625,0-10.01856-5.88574-16.78076-14.65136-16.78076C526.84785,59.29677,520.96211,66.059,520.96211,76.07753Z"/><path d="M606.11641,42.015v67.749h-22.165V42.015Zm-.876-19.03467a10.14356,10.14356,0,0,1-20.28711,0,10.14432,10.14432,0,1,1,20.28711,0Z"/><path d="M667.22676,41.13856v20.4126c-12.39746-1.25244-20.66211,4.25732-21.78906,13.6499v34.563h-22.291V42.015h22.291V53.286C650.07051,45.52186,657.71016,41.13856,667.22676,41.13856Z"/><path d="M740.9875,81.83827H693.90156c2.12891,7.63867,7.76367,11.89648,15.40235,11.89648a22.45475,22.45475,0,0,0,15.90429-6.88769l11.64649,11.64648C729.967,106.25722,719.82344,110.515,707.301,110.515c-22.166,0-35.81543-13.64942-35.81543-34.3125,0-21.03809,14.15039-34.93848,35.31445-34.93848C730.468,41.26405,742.49043,57.16786,740.9875,81.83827Zm-21.54-11.897c0-7.76416-5.00879-13.02393-12.52246-13.02393-7.26367,0-12.02246,5.25977-13.52441,13.02393Z"/><path class="cls-1" d="M73.1357,56.1668c-7.263,0-12.02169,5.2594-13.52457,13.02384h26.047C85.65813,61.4262,80.64943,56.1668,73.1357,56.1668Z"/><path class="cls-1" d="M117.09226,77.70583v-14.276H149.364a75.265,75.265,0,1,0,.84835,14.276Zm-9.8951,3.38081H60.11186c2.12931,7.63942,7.76443,11.89667,15.40318,11.89667a22.45731,22.45731,0,0,0,15.90391-6.888l11.646,11.64666c-6.888,7.76443-17.03107,12.02169-29.5535,12.02169-22.16478,0-35.815-13.64959-35.815-34.31217,0-21.03762,14.151-34.93792,35.31432-34.93792C96.67835,40.51359,108.7,56.4175,107.19716,81.08664Z"/></g></g></svg>