<svg id="Calque_1" data-name="Calque 1" xmlns="http://www.w3.org/2000/svg" viewBox="0 0 850.3937 850.3937"><defs><style>.cls-1{fill:#66145e;}</style></defs><path d="M336.7251,417.11914v42.70313H314.43457V423.50586c0-7.76416-4.25781-12.39746-11.14551-12.39746-7.88916.125-12.77343,6.38672-12.77343,15.27734v33.43653H268.2251V423.50586c0-7.76416-4.25781-12.39746-11.14551-12.39746-7.88916.125-12.89844,6.38672-12.89844,15.27734v33.43653H222.01563v-67.749h22.16552v11.14551c4.6333-7.88916,12.27246-12.022,22.04-12.022,11.02051,0,19.16016,5.63525,22.54151,15.15283,4.38281-10.01856,12.64794-15.15283,23.668-15.15283C327.08252,391.19678,336.7251,401.21533,336.7251,417.11914Z"/><path d="M415.87012,431.89648H368.78418c2.12891,7.63868,7.76416,11.89649,15.40332,11.89649a22.45539,22.45539,0,0,0,15.90381-6.8877l11.64648,11.64649c-6.88769,7.76367-17.03125,12.02148-29.5542,12.02148-22.16552,0-35.81543-13.64941-35.81543-34.3125,0-21.03808,14.15088-34.93847,35.31446-34.93847C405.35107,391.32227,417.37305,407.22607,415.87012,431.89648Zm-21.53907-11.897c0-7.76416-5.00927-13.02392-12.52294-13.02392-7.26319,0-12.022,5.25976-13.52491,13.02392Zm-7.51367-35.18945H369.91113L383.311,363.396l19.91113,7.01269Z"/><path d="M542.10254,417.11914v42.70313h-22.291V423.50586c0-7.76416-4.25781-12.39746-11.1455-12.39746-7.88965.125-12.77344,6.38672-12.77344,15.27734v33.43653h-22.291V423.50586c0-7.76416-4.25781-12.39746-11.14453-12.39746-7.88965.125-12.89941,6.38672-12.89941,15.27734v33.43653h-22.165v-67.749h22.165v11.14551c4.63379-7.88916,12.27246-12.022,22.041-12.022,11.01953,0,19.16016,5.63525,22.541,15.15283,4.38281-10.01856,12.64844-15.15283,23.668-15.15283C532.46,391.19678,542.10254,401.21533,542.10254,417.11914Z"/><path d="M625.75586,425.88525c0,20.91358-14.77734,34.688-37.06738,34.688-22.291,0-36.94239-13.77441-36.94239-34.688,0-20.78808,14.65137-34.563,36.94239-34.563C610.97852,391.32227,625.75586,405.09717,625.75586,425.88525Zm-51.59375.25049c0,10.14356,5.88574,16.90625,14.52637,16.90625,8.76562,0,14.65136-6.76269,14.65136-16.90625,0-10.01855-5.88574-16.78076-14.65136-16.78076C580.04785,409.355,574.16211,416.11719,574.16211,426.13574Z"/><path d="M659.31641,392.07324v67.749h-22.165v-67.749Zm-.876-19.03467A10.14432,10.14432,0,1,1,648.29688,362.77,9.80156,9.80156,0,0,1,658.44043,373.03857Z"/><path d="M720.42676,391.19678v20.4126c-12.39746-1.25245-20.66211,4.25732-21.78906,13.6499v34.563h-22.291v-67.749h22.291v11.271C703.27051,395.58008,710.91016,391.19678,720.42676,391.19678Z"/><path d="M794.1875,431.89648H747.10156c2.12891,7.63868,7.76367,11.89649,15.40235,11.89649a22.45477,22.45477,0,0,0,15.90429-6.8877l11.64649,11.64649c-6.8877,7.76367-17.03125,12.02148-29.55371,12.02148-22.166,0-35.81543-13.64941-35.81543-34.3125,0-21.03808,14.15039-34.93847,35.31445-34.93847C783.668,391.32227,795.69043,407.22607,794.1875,431.89648Zm-21.54-11.897c0-7.76416-5.00879-13.02392-12.52246-13.02392-7.26367,0-12.02246,5.25976-13.52441,13.02392Z"/><path class="cls-1" d="M126.3357,406.225c-7.263,0-12.02169,5.25941-13.52457,13.02384h26.047C138.85813,411.48442,133.84943,406.225,126.3357,406.225Z"/><path class="cls-1" d="M170.29226,427.76405V413.488H202.564a75.265,75.265,0,1,0,.84835,14.276Zm-9.8951,3.3808h-47.0853c2.12931,7.63942,7.76443,11.89668,15.40318,11.89668a22.45735,22.45735,0,0,0,15.90391-6.888l11.646,11.64665c-6.888,7.76444-17.03107,12.02169-29.5535,12.02169-22.16478,0-35.815-13.64958-35.815-34.31217,0-21.03762,14.151-34.93791,35.31432-34.93791C149.87835,390.57181,161.9,406.47572,160.39716,431.14485Z"/></svg>